<svg xmlns="http://www.w3.org/2000/svg" width="212.303" height="18.225" viewBox="0 0 212.303 18.225">
  <g id="Group_910" data-name="Group 910" transform="translate(-212.723 239.3)">
    <path id="Path_891" data-name="Path 891" d="M212.723-221.582,218.5-233.71h-5.775v-5.228h14.717l-5.39,12.128h5.39v5.228Z" transform="translate(0 0.073)" fill="#404040"/>
    <path id="Path_892" data-name="Path 892" d="M235.016-232.212l-1.455,4.6h2.995Zm3.529,10.631-.727-2.257h-5.476l-.727,2.257H225.99l6.352-17.357h6.781l6.438,17.357Z" transform="translate(2.451 0.073)" fill="#404040"/>
    <path id="Path_893" data-name="Path 893" d="M253.742-221.582l-2.61-4.643-.9,1.258v3.385H243.5v-17.357h6.737v5.792l3.615-5.792h6.717l-5.2,7.637,5.369,9.72Z" transform="translate(5.685 0.073)" fill="#404040"/>
    <path id="Path_894" data-name="Path 894" d="M280.706-221.582h-5.412l-2.653-7.746-2.631,7.746H264.6l-5.946-17.357h7.016l2.353,8.547,2.225-8.547h5.861l2.332,8.547,2.246-8.547h5.861Z" transform="translate(8.484 0.073)" fill="#404040"/>
    <path id="Path_895" data-name="Path 895" d="M288.818-232.212l-1.455,4.6h2.995Zm3.529,10.631-.727-2.257h-5.476l-.727,2.257h-5.625l6.353-17.357h6.781l6.438,17.357Z" transform="translate(12.389 0.073)" fill="#404040"/>
    <path id="Path_896" data-name="Path 896" d="M305.094-221.075c-4.578,0-8.471-2.192-8.471-5.945h5.327c.213,1.649,2.182,2,3.08,2,1.219,0,2.332-.3,2.332-1,0-2.169-10.46-.5-10.46-7.246,0-2.93,2.759-6.032,8.064-6.032,4.47,0,7.742,2.388,7.742,5.6h-5.133a2.37,2.37,0,0,0-2.567-2.019c-1.219,0-2.1.326-2.1,1,0,.824,1.305,1.15,2.974,1.519,3.1.673,7.508,1.823,7.508,5.923,0,3.232-2.225,6.205-8.3,6.205" transform="translate(15.498 0)" fill="#404040"/>
    <path id="Path_897" data-name="Path 897" d="M320.817-234.2c-1.134,0-2.053.977-2.053,4.015s.919,4.035,2.053,4.035,2.053-1,2.053-4.035-.919-4.015-2.053-4.015m0,13.127a9,9,0,0,1-8.877-9.112,9,9,0,0,1,8.877-9.113,9,9,0,0,1,8.877,9.113,9,9,0,0,1-8.877,9.112" transform="translate(18.328 0)" fill="#404040"/>
    <path id="Path_898" data-name="Path 898" d="M348.6-221.582h-5.412l-2.653-7.746-2.631,7.746H332.49l-5.947-17.357h7.016l2.353,8.547,2.225-8.547H344l2.332,8.547,2.246-8.547h5.861Z" transform="translate(21.025 0.073)" fill="#404040"/>
    <path id="Path_899" data-name="Path 899" d="M363.112-221.582,357.1-229.2v7.615h-5.754v-17.357h6.011l5.754,7.55v-7.55h5.754v17.357Z" transform="translate(25.607 0.073)" fill="#404040"/>
    <rect id="Rectangle_341" data-name="Rectangle 341" width="6.76" height="17.357" transform="translate(397.149 -238.866)" fill="#404040"/>
    <path id="Path_900" data-name="Path 900" d="M384.429-232.212l-1.455,4.6h2.995Zm3.529,10.631-.728-2.257h-5.476l-.727,2.257H375.4l6.352-17.357h6.781l6.438,17.357Z" transform="translate(30.051 0.073)" fill="#404040"/>
  </g>
</svg>
