<svg xmlns="http://www.w3.org/2000/svg" width="473" height="38" viewBox="0 0 473 38">
  <g id="Group_941" data-name="Group 941" transform="translate(-1277 -5619)">
    <g id="Group_906" data-name="Group 906" transform="translate(603 3)">
      <text id="Gluten" transform="translate(853 5619)" fill="#404040" font-size="22" font-family="Figura-Regular, Figura"><tspan x="0" y="22">GLUTEN</tspan></text>
    </g>
    <g id="Group_907" data-name="Group 907" transform="translate(617 3)">
      <text id="Orzechy" transform="translate(1008 5619)" fill="#404040" font-size="22" font-family="Figura-Regular, Figura"><tspan x="0" y="22">ORZECHY</tspan></text>
    </g>
    <g id="Group_905" data-name="Group 905" transform="translate(618 3)">
      <text id="Soja" transform="translate(698 5619)" fill="#404040" font-size="22" font-family="Figura-Regular, Figura"><tspan x="0" y="22">SOJA</tspan></text>
    </g>
    <path id="Path_912" data-name="Path 912" d="M521.441,1002.707l-.934-.934-3.138,3.138-3.432-.074v-3.321l4.689-4.689-.937-.937-4.628,4.628H509.6v-3.365l3.143-3.144-.937-.934-3.3,3.3.013.013-12.815,12.82v8.668l-4.263,4.26.934.937,4.3-4.3,8.634.037L518.128,1006l.013.013Zm-8.827-.865v2.966l-3.014-.063v-2.9Zm-4.337-3.339v6.8l-2.889,2.889v-6.8Zm-4.212,4.212v6.8l-2.879,2.876v-6.8Zm-7.038,7.044,2.836-2.839v6.8l-2.836,2.839Zm7.753,7.715H500.99l-3-.016,2.866-2.863h6.8Zm4.2-4.2h-6.8l2.879-2.879h6.8Zm4.2-4.2h-6.8l3.006-3.006,6.66.143Z" transform="translate(926.559 4627.924)" fill="#404040"/>
    <g id="Group_940" data-name="Group 940" transform="translate(1058.329 4634.992)">
      <path id="Path_864" data-name="Path 864" d="M550.374,986.008a7.245,7.245,0,0,0-5.085,2.078,13.079,13.079,0,0,0-1.44,1.948c-1.98,3.377-4.342,5.09-9.36,6.784a11.341,11.341,0,0,0-3.891,2.372,9.825,9.825,0,1,0,13.892,13.9,12.958,12.958,0,0,0,2.356-3.869l.011-.03c1.7-5.022,3.41-7.382,6.792-9.364a12.642,12.642,0,0,0,1.885-1.361,7.3,7.3,0,0,0-5.161-12.454Zm4.074,11.366a11.071,11.071,0,0,1-1.584,1.124c-3.695,2.164-5.649,4.83-7.459,10.18a11.482,11.482,0,0,1-2,3.32,8.287,8.287,0,1,1-11.716-11.721,9.83,9.83,0,0,1,3.295-2c5.359-1.811,8.026-3.765,10.188-7.451a11.378,11.378,0,0,1,1.2-1.639,5.753,5.753,0,0,1,8.084,8.188Z" fill="#404040"/>
      <path id="Path_865" data-name="Path 865" d="M536.067,1004.328a1.31,1.31,0,1,0-1.307-1.31A1.311,1.311,0,0,0,536.067,1004.328Z" transform="translate(1.989 4.406)" fill="#404040"/>
      <path id="Path_866" data-name="Path 866" d="M532.548,1002.319a1.309,1.309,0,1,0,1.309,1.309A1.311,1.311,0,0,0,532.548,1002.319Z" transform="translate(0 4.577)" fill="#404040"/>
      <path id="Path_867" data-name="Path 867" d="M534.9,1004.492a1.309,1.309,0,1,0,1.311,1.309A1.31,1.31,0,0,0,534.9,1004.492Z" transform="translate(1.66 6)" fill="#404040"/>
      <path id="Path_868" data-name="Path 868" d="M538.253,1003.928a1.309,1.309,0,1,0,1.309,1.309A1.311,1.311,0,0,0,538.253,1003.928Z" transform="translate(2.602 6)" fill="#404040"/>
      <path id="Path_869" data-name="Path 869" d="M539.86,1000.905a1.309,1.309,0,1,0,1.309,1.309A1.31,1.31,0,0,0,539.86,1000.905Z" transform="translate(3.053 4.18)" fill="#404040"/>
      <path id="Path_870" data-name="Path 870" d="M540.663,997.882a1.309,1.309,0,1,0,1.31,1.309A1.31,1.31,0,0,0,540.663,997.882Z" transform="translate(3.278 3.332)" fill="#404040"/>
      <path id="Path_871" data-name="Path 871" d="M542.839,995.49a1.31,1.31,0,1,0,1.31,1.31A1.311,1.311,0,0,0,542.839,995.49Z" transform="translate(3.889 2.661)" fill="#404040"/>
      <path id="Path_872" data-name="Path 872" d="M545.571,993.261a1.31,1.31,0,1,0,1.309,1.309A1.311,1.311,0,0,0,545.571,993.261Z" transform="translate(4.655 2.035)" fill="#404040"/>
    </g>
    <path id="Path_913" data-name="Path 913" d="M463.449,982.646l-1.271.445a13.145,13.145,0,0,1,.38,5.251,4.728,4.728,0,0,0-4.1-1.978c-5.23,0-8.186,3.621-8.576,6.559a7.169,7.169,0,0,0-6.636,5.755c-6.426.229-8.735,3.993-8.735,7.521,0,2.02,2.129,6.446,8.451,6.446,12.262,0,22.24-9.64,22.24-21.49A21.33,21.33,0,0,0,463.449,982.646ZM435.861,1006.2c0-3.871,2.994-6.181,8.009-6.181h.675v-.676a5.794,5.794,0,0,1,5.969-5.093h.675v-.675c0-2.044,2.133-5.86,7.27-5.86a3.317,3.317,0,0,1,3.56,2.766l-.159.373a4.548,4.548,0,0,0-2.355-.56,6.5,6.5,0,0,0-4.307,1.618,7.006,7.006,0,0,0-2.193,4.91,6.512,6.512,0,0,0-4.834,1.6,6.6,6.6,0,0,0-2.316,4.1,5.622,5.622,0,0,0-.611-.166,6.59,6.59,0,0,0-4.49.68,6.056,6.056,0,0,0-3.4,6.193A4.857,4.857,0,0,1,435.861,1006.2Zm18.477-9.07c.2-4.037,2.867-5.485,5.166-5.485,1.241,0,1.911.454,1.911.64a.744.744,0,0,0,.025.185,22.552,22.552,0,0,1-3.894,7.184,3.868,3.868,0,0,1-.579-.034,4.618,4.618,0,0,0-2.63-2.49Zm1.672,4.284a25.262,25.262,0,0,1-6.795,5.019l-.093-.04a4.608,4.608,0,0,0-1.967-3.225,5.126,5.126,0,0,1,1.891-3.719,5.047,5.047,0,0,1,4.412-1.187c.014.006.027.009.041.014a3.311,3.311,0,0,1,2.51,3.139Zm-14.625,2.814a5.5,5.5,0,0,1,2.566-.66,4.777,4.777,0,0,1,1.008.106,4.142,4.142,0,0,1,1.131.421.567.567,0,0,0,.12.069,3.259,3.259,0,0,1,1.6,2.649q0,.039,0,.079c0,.069,0,.137,0,.2a30.689,30.689,0,0,1-9.015,2.345C438.175,1007.6,439.251,1005.356,441.386,1004.227Zm1.576,7.068a9.025,9.025,0,0,1-3.363-.59c16.622-2.145,22.575-14.452,23.51-19.332.049-.1.125-.271.215-.506l.08-.187,0-.026a10.5,10.5,0,0,0,.366-1.343q.084.915.084,1.846C463.852,1002.262,454.481,1011.295,442.962,1011.295Z" transform="translate(842.489 4636.354)" fill="#404040"/>
  </g>
</svg>
